#!OML:ASF Y:\EmotionMaleHayes\Project 1\Capture day 1\Session 1\Male1.ASF
:FULLY-SPECIFIED
:DEGREES
53
root 0 0 0 0 0 0
lowerback 0 0 0
upperback 0 0 0
thorax 0 0 0
lowerneck 0 0 0
upperneck 0 0 0
head 0 0 0
rclavicle 0 0
rhumerus 0 0 0
rradius 0
rwrist 0
rhand 0 0
rfingers 0
rthumb 0 0
lclavicle 0 0
lhumerus 0 0 0
lradius 0
lwrist 0
lhand 0 0
lfingers 0
lthumb 0 0
rfemur 0 0 0
rtibia 0
rfoot 0 0
rtoes 0
lfemur 0 0 0
ltibia 0
lfoot 0 0
ltoes 0
54
root 0 0 0 0 0 0
lowerback 0 0 0
upperback 0 0 0
thorax 0 0 0
lowerneck 0 0 0
upperneck 0 0 0
head 0 0 0
rclavicle 0 0
rhumerus 0 0 0
rradius 0
rwrist 0
rhand 0 0
rfingers 0
rthumb 0 0
lclavicle 0 0
lhumerus 0 0 0
lradius 0
lwrist 0
lhand 0 0
lfingers 0
lthumb 0 0
rfemur 0 0 0
rtibia 0
rfoot 0 0
rtoes 0
lfemur 0 0 0
ltibia 0
lfoot 0 0
ltoes 0
55
root 0 0 0 0 0 0
lowerback 0 0 0
upperback 0 0 0
thorax 0 0 0
lowerneck 0 0 0
upperneck 0 0 0
head 0 0 0
rclavicle 0 0
rhumerus 0 0 0
rradius 0
rwrist 0
rhand 0 0
rfingers 0
rthumb 0 0
lclavicle 0 0
lhumerus 0 0 0
lradius 0
lwrist 0
lhand 0 0
lfingers 0
lthumb 0 0
rfemur 0 0 0
rtibia 0
rfoot 0 0
rtoes 0
lfemur 0 0 0
ltibia 0
lfoot 0 0
ltoes 0
56
root -42.0012 15.9038 0.630106 -64.721 89.0314 -67.6097
lowerback 17.491 -1.26222 -1.44657
upperback 3.14346 -1.57855 2.25211
thorax -6.31435 -0.644264 3.57644
lowerneck -27.0256 3.94051 1.90568
upperneck 12.9088 5.44668 -4.01972
head 8.54138 2.22267 -0.879665
rclavicle 1.15295e-014 8.74653e-015
rhumerus -68.3498 18.4928 -89.919
rradius 95.8084
rwrist -18.5699
rhand -24.5032 -23.287
rfingers 7.12502
rthumb 1.99138 -53.2575
lclavicle 1.15295e-014 8.74653e-015
lhumerus -48.2383 -30.141 106.599
lradius 101.632
lwrist 10.2902
lhand -33.6953 -31.6479
lfingers 7.12502
lthumb -6.88548 -1.77991
rfemur 0 0 0
rtibia 0
rfoot 0 0
rtoes 0
lfemur 0 0 0
ltibia 0
lfoot 0 0
ltoes 0
57
root -41.6232 15.8233 0.614876 -38.4194 86.8748 -41.8024
lowerback 18.1302 -0.335202 -0.499099
upperback 2.89438 -0.157674 2.5376
thorax -7.03138 0.0398685 3.03759
lowerneck -26.9742 3.52632 1.30632
upperneck 12.2228 4.98214 -3.497
head 8.25089 2.04765 -0.680266
rclavicle 1.19271e-014 1.86858e-014
rhumerus -64.9309 18.5606 -89.5039
rradius 95.3613
rwrist -18.222
rhand -25.3885 -23.9178
rfingers 7.12502
rthumb 1.13639 -53.8945
lclavicle 1.19271e-014 1.86858e-014
lhumerus -49.5701 -27.7946 106.887
lradius 99.4643
lwrist 10.3997
lhand -31.6339 -29.0813
lfingers 7.12502
lthumb -4.89524 0.842184
rfemur 0 0 0
rtibia 0
rfoot 0 0
rtoes 0
lfemur 0 0 0
ltibia 0
lfoot 0 0
ltoes 0
58
root -41.2058 15.7298 0.614143 -43.4369 85.3589 -46.487
lowerback 19.0732 0.135777 0.527524
upperback 3.05942 0.73187 2.92272
thorax -7.40751 0.461544 2.65693
lowerneck -27.3917 3.54484 1.5974
upperneck 11.6998 4.99084 -4.02305
head 8.16083 2.01658 -0.902049
rclavicle 2.68359e-015 8.74653e-015
rhumerus -59.804 19.7008 -89.3324
rradius 93.0005
rwrist -18.4693
rhand -26.548 -23.5973
rfingers 7.12502
rthumb 0.0164824 -53.5771
lclavicle 2.68359e-015 8.74653e-015
lhumerus -50.6882 -25.168 106.927
lradius 97.1018
lwrist 10.3681
lhand -29.2662 -26.4315
lfingers 7.12502
lthumb -2.60878 3.53229
rfemur 0 0 0
rtibia 0
rfoot 0 0
rtoes 0
lfemur 0 0 0
ltibia 0
lfoot 0 0
ltoes 0
59
root -40.833 15.6578 0.587217 -62.5345 86.5338 -64.3557
lowerback 21.1069 -0.322429 0.966261
upperback 3.62367 0.314686 2.86681
thorax -7.86343 0.272555 2.4637
lowerneck -27.9229 3.42267 1.89037
upperneck 11.028 4.78633 -4.46155
head 8.02696 1.89714 -1.12518
rclavicle -1.03368e-014 -1.35174e-014
rhumerus -55.8776 19.904 -88.7146
rradius 93.8525
rwrist -18.318
rhand -25.6593 -24.839
rfingers 7.12502
rthumb 0.874838 -54.817
lclavicle -1.03368e-014 -1.35174e-014
lhumerus -51.1426 -22.6782 106.206
lradius 94.7621
lwrist 11.4471
lhand -27.2983 -24.9195
lfingers 7.12502
lthumb -0.708183 5.05907
rfemur 0 0 0
rtibia 0
rfoot 0 0
rtoes 0
lfemur 0 0 0
ltibia 0
lfoot 0 0
ltoes 0
60
root -40.4675 15.5174 0.602382 -41.3243 81.7916 -44.9268
lowerback 19.7624 1.48802 2.05127
upperback 3.52828 2.91983 3.59823
thorax -7.32383 1.50314 1.95429
lowerneck -28.5464 3.32506 2.18258
upperneck 10.6793 4.62369 -4.91046
head 8.01751 1.78763 -1.34438
rclavicle -5.76476e-015 3.97569e-016
rhumerus -51.825 20.3024 -88.0212
rradius 93.611
rwrist -18.1763
rhand -25.5231 -25.6933
rfingers 7.12502
rthumb 1.00632 -55.6707
lclavicle -5.76476e-015 3.97569e-016
lhumerus -52.1897 -20.3243 105.502
lradius 92.3055
lwrist 12.2836
lhand -27.9353 -23.5654
lfingers 7.12502
lthumb -1.32347 6.41022
rfemur 0 0 0
rtibia 0
rfoot 0 0
rtoes 0
lfemur 0 0 0
ltibia 0
lfoot 0 0
ltoes 0
61
root -40.0339 15.5577 0.5665 -42.6426 84.4433 -45.1456
lowerback 21.3434 1.10466 0.919535
upperback 3.91528 2.22416 3.33126
thorax -7.75684 1.2014 2.46894
lowerneck -29.0157 3.30142 2.232
upperneck 10.3938 4.68171 -5.50695
head 8.01379 1.75644 -1.54454
rclavicle 1.98785e-015 -4.77083e-015
rhumerus -47.4349 21.2746 -87.2023
rradius 92.8984
rwrist -18.7766
rhand -26.6628 -27.3104
rfingers 7.12502
rthumb -0.0943757 -57.2902
lclavicle 1.98785e-015 -4.77083e-015
lhumerus -53.5751 -17.8663 104.683
lradius 89.4396
lwrist 12.7979
lhand -29.874 -22.0928
lfingers 7.12502
lthumb -3.19582 7.86299
rfemur 0 0 0
rtibia 0
rfoot 0 0
rtoes 0
lfemur 0 0 0
ltibia 0
lfoot 0 0
ltoes 0
62
root -39.6215 15.5533 0.551097 -37.8763 84.8126 -40.8767
lowerback 21.0582 1.35406 0.29841
upperback 4.03003 2.41103 3.42179
thorax -7.5156 1.30717 2.87611
lowerneck -29.3209 3.25664 2.15177
upperneck 10.1965 4.7763 -6.16147
head 8.01776 1.73078 -1.73991
rclavicle -1.74931e-014 -3.4191e-014
rhumerus -43.0098 22.3495 -86.2891
rradius 92.4748
rwrist -19.6325
rhand -29.4132 -26.897
rfingers 7.12502
rthumb -2.75081 -56.859
lclavicle -1.74931e-014 -3.4191e-014
lhumerus -54.6476 -16.004 104.106
lradius 87.0536
lwrist 14.9319
lhand -32.4497 -19.1037
lfingers 7.12502
lthumb -5.68291 10.8001
rfemur 0 0 0
rtibia 0
rfoot 0 0
rtoes 0
lfemur 0 0 0
ltibia 0
lfoot 0 0
ltoes 0
63
root -39.2269 15.5212 0.549086 -35.8558 82.8722 -40.0566
lowerback 19.8249 2.08451 0.900603
upperback 4.08168 3.48755 3.82331
thorax -6.85101 1.81699 2.70999
lowerneck -29.6529 3.18251 2.34594
upperneck 10.2628 4.74938 -6.88275
head 8.1203 1.64301 -2.02137
rclavicle 1.55052e-014 2.70347e-014
rhumerus -38.5551 22.7926 -85.316
rradius 92.2394
rwrist -19.4259
rhand -30.067 -24.899
rfingers 7.12502
rthumb -3.38217 -54.8519
lclavicle 1.55052e-014 2.70347e-014
lhumerus -55.6393 -14.6001 102.981
lradius 84.888
lwrist 18.9619
lhand -32.4137 -18.1958
lfingers 7.12502
lthumb -5.64815 11.7089
rfemur 0 0 0
rtibia 0
rfoot 0 0
rtoes 0
lfemur 0 0 0
ltibia 0
lfoot 0 0
ltoes 0
64
root -38.8095 15.5398 0.523675 -40.978 82.1015 -45.195
lowerback 20.6986 1.82103 3.57801
upperback 3.68794 3.66769 2.93506
thorax -7.52674 1.81778 0.151547
lowerneck -29.5799 3.17836 3.27917
upperneck 10.779 4.34109 -6.61689
head 8.27502 1.50305 -2.14325
rclavicle -3.37934e-015 1.23246e-014
rhumerus -35.3485 22.0452 -86.6961
rradius 92.244
rwrist -18.4112
rhand -28.2406 -24.8021
rfingers 7.12502
rthumb -1.61827 -54.7757
lclavicle -3.37934e-015 1.23246e-014
lhumerus -58.7696 -14.7401 101.111
lradius 82.5738
lwrist 18.9016
lhand -34.8431 -18.9437
lfingers 7.12502
lthumb -7.99339 10.8852
rfemur 0 0 0
rtibia 0
rfoot 0 0
rtoes 0
lfemur 0 0 0
ltibia 0
lfoot 0 0
ltoes 0
65
root -38.4032 15.5611 0.497091 -43.1204 81.9046 -47.6591
lowerback 20.8123 1.9069 4.29471
upperback 3.57249 3.96003 3.04801
thorax -7.66947 1.9377 -0.214402
lowerneck -29.5501 3.00559 2.995
upperneck 10.8734 4.2621 -6.78788
head 8.30014 1.43327 -2.16993
rclavicle -1.8487e-014 -9.93923e-015
rhumerus -31.7241 22.0577 -86.1603
rradius 92.4072
rwrist -17.6608
rhand -30.0991 -21.7518
rfingers 7.12502
rthumb -3.41316 -51.7042
lclavicle -1.8487e-014 -9.93923e-015
lhumerus -61.1574 -14.1518 100.16
lradius 83.6618
lwrist 24.4652
lhand -32.6874 -16.7249
lfingers 7.12502
lthumb -5.91243 13.1726
rfemur 0 0 0
rtibia 0
rfoot 0 0
rtoes 0
lfemur 0 0 0
ltibia 0
lfoot 0 0
ltoes 0
66
root -37.9783 15.6097 0.46682 -44.8627 80.9159 -49.6756
lowerback 20.9998 2.1155 5.402
upperback 3.43934 4.5214 3.26367
thorax -7.83394 2.17565 -0.762894
lowerneck -29.5928 2.90858 3.04827
upperneck 11.0359 4.2206 -7.28416
head 8.37923 1.35728 -2.3579
rclavicle -3.85642e-014 -7.15625e-014
rhumerus -27.9881 22.0763 -85.6909
rradius 92.7697
rwrist -16.358
rhand -29.1947 -21.8343
rfingers 7.12502
rthumb -2.53978 -51.7989
lclavicle -3.85642e-014 -7.15625e-014
lhumerus -64.1285 -14.1311 99.8873
lradius 83.4177
lwrist 25.7321
lhand -32.8862 -20.2559
lfingers 7.12502
lthumb -6.10434 9.63618
rfemur 0 0 0
rtibia 0
rfoot 0 0
rtoes 0
lfemur 0 0 0
ltibia 0
lfoot 0 0
ltoes 0
67
root -37.5535 15.6611 0.44856 -42.5804 79.9229 -47.8509
lowerback 21.1124 2.6585 5.79575
upperback 3.16404 5.3367 3.30386
thorax -8.12889 2.53557 -1.16823
lowerneck -29.5697 2.67055 3.20152
upperneck 11.1252 3.89578 -7.52558
head 8.39921 1.18276 -2.51764
rclavicle -1.63003e-014 -1.59028e-014
rhumerus -25.1128 21.5623 -85.4662
rradius 93.4894
rwrist -14.625
rhand -29.5276 -20.3552
rfingers 7.12502
rthumb -2.86128 -50.3157
lclavicle -1.63003e-014 -1.59028e-014
lhumerus -67.3731 -14.4174 99.607
lradius 84.4782
lwrist 25.7019
lhand -32.2633 -18.7013
lfingers 7.12502
lthumb -5.50298 11.2073
rfemur 0 0 0
rtibia 0
rfoot 0 0
rtoes 0
lfemur 0 0 0
ltibia 0
lfoot 0 0
ltoes 0
68
root -37.0525 15.7389 0.398427 -39.0894 79.2547 -44.2478
lowerback 21.0249 3.15302 6.23469
upperback 3.17055 6.04151 3.0638
thorax -7.96342 2.85957 -1.84811
lowerneck -29.7495 2.42173 3.32054
upperneck 11.5713 3.54802 -7.5935
head 8.56509 1.00206 -2.61962
rclavicle -3.57812e-015 -1.66979e-014
rhumerus -22.6232 20.6415 -85.5006
rradius 94.2005
rwrist -12.4234
rhand -29.2035 -19.612
rfingers 7.12502
rthumb -2.5482 -49.5766
lclavicle -3.57812e-015 -1.66979e-014
lhumerus -70.6402 -15.0282 99.3209
lradius 85.3546
lwrist 25.7628
lhand -30.9721 -19.6222
lfingers 7.12502
lthumb -4.25624 10.315
rfemur 0 0 0
rtibia 0
rfoot 0 0
rtoes 0
lfemur 0 0 0
ltibia 0
lfoot 0 0
ltoes 0
69
root -36.5887 15.8238 0.370339 -38.7004 78.8601 -44.0676
lowerback 20.9839 3.49999 6.61582
upperback 2.98703 6.57857 3.03894
thorax -8.06203 3.09389 -2.22726
lowerneck -29.9573 2.12699 3.25127
upperneck 12.0971 3.19505 -7.5569
head 8.75742 0.820282 -2.65821
rclavicle 4.07509e-014 -1.27222e-014
rhumerus -20.5219 19.8835 -85.5181
rradius 95.0844
rwrist -10.394
rhand -29.5023 -18.7044
rfingers 7.12502
rthumb -2.83681 -48.6652
lclavicle 4.07509e-014 -1.27222e-014
lhumerus -73.536 -15.9626 99.598
lradius 85.895
lwrist 24.4301
lhand -31.3933 -19.2814
lfingers 7.12502
lthumb -4.66294 10.6473
rfemur 0 0 0
rtibia 0
rfoot 0 0
rtoes 0
lfemur 0 0 0
ltibia 0
lfoot 0 0
ltoes 0
70
root -36.103 15.9252 0.345783 -37.5206 78.2926 -42.9638
lowerback 20.895 3.98708 6.80922
upperback 2.84013 7.25593 3.06274
thorax -8.105 3.40456 -2.47834
lowerneck -30.1349 1.74036 2.97735
upperneck 12.5918 2.75849 -7.32726
head 8.92333 0.613467 -2.60993
rclavicle -3.91606e-014 -4.6118e-014
rhumerus -19.0167 19.3486 -85.514
rradius 96.3583
rwrist -9.0989
rhand -30.5615 -18.0249
rfingers 7.12502
rthumb -3.8597 -47.9697
lclavicle -3.91606e-014 -4.6118e-014
lhumerus -76.6167 -16.8326 99.9458
lradius 86.6333
lwrist 23.4465
lhand -31.3045 -19.8203
lfingers 7.12502
lthumb -4.57713 10.1103
rfemur 0 0 0
rtibia 0
rfoot 0 0
rtoes 0
lfemur 0 0 0
ltibia 0
lfoot 0 0
ltoes 0
